<?xml version="1.0" encoding="UTF-8" standalone="no"?>
<!-- Generator: Adobe Illustrator 27.3.1, SVG Export Plug-In . SVG Version: 6.00 Build 0)  -->

<svg
   version="1.1"
   x="0px"
   y="0px"
   width="139.396"
   height="30.82"
   viewBox="0 0 139.396 30.82"
   enable-background="new 0 0 156 60"
   xml:space="preserve"
   id="svg67"
   sodipodi:docname="34c38adf07c5b3cb3c79be034ef3120f.svg"
   xmlns:inkscape="http://www.inkscape.org/namespaces/inkscape"
   xmlns:sodipodi="http://sodipodi.sourceforge.net/DTD/sodipodi-0.dtd"
   xmlns="http://www.w3.org/2000/svg"
   xmlns:svg="http://www.w3.org/2000/svg"><defs
   id="defs71" /><sodipodi:namedview
   id="namedview69"
   pagecolor="#ffffff"
   bordercolor="#666666"
   borderopacity="1.0"
   inkscape:pageshadow="2"
   inkscape:pageopacity="0.0"
   inkscape:pagecheckerboard="0" />
<g
   id="Warstwa_2"
   transform="translate(-8.552,-14.59)">
</g>
<g
   id="Warstwa_1"
   transform="translate(-8.552,-14.59)">
</g>
<g
   id="Warstwa_3"
   transform="translate(-8.552,-14.59)">
	<g
   id="g64">
		<g
   id="g14">
			<path
   fill="none"
   stroke="#cdceed"
   stroke-miterlimit="10"
   d="m 45.709,37.568 v 2.854 c 0,2.479 -2.009,4.488 -4.488,4.488 h -27 c -2.479,0 -4.488,-2.009 -4.488,-4.488 v -2.814"
   id="path4" />
			<path
   fill="none"
   stroke="#cdceed"
   stroke-miterlimit="10"
   d="m 9.732,26.782 v -7.204 c 0,-2.479 2.009,-4.488 4.488,-4.488 h 27 c 2.479,0 4.488,2.009 4.488,4.488 v 7.198"
   id="path6" />
			<path
   fill="none"
   stroke="#cdceed"
   stroke-miterlimit="10"
   d="m 35.741,34.786 h -3.822 c -0.64,0 -1.158,-0.519 -1.158,-1.158 v -1.713 c 0,-0.472 0.319,-0.884 0.775,-1.003 l 3.825,-0.998 c 0.761,-0.199 1.505,0.376 1.505,1.162 v 2.586 c -10e-4,0.621 -0.504,1.124 -1.125,1.124 z"
   id="path8" />
			<path
   fill="none"
   stroke="#cdceed"
   stroke-miterlimit="10"
   d="m 19.871,34.786 h 3.822 c 0.64,0 1.158,-0.519 1.158,-1.158 v -1.713 c 0,-0.472 -0.319,-0.884 -0.775,-1.003 l -3.825,-0.998 c -0.761,-0.199 -1.505,0.376 -1.505,1.162 v 2.586 c 0,0.621 0.504,1.124 1.125,1.124 z"
   id="path10" />
			<path
   fill="none"
   stroke="#cdceed"
   stroke-miterlimit="10"
   d="m 50.333,30.378 c -0.403,-0.976 -1.352,-1.375 -2.074,-1.375 -0.784,0 -1.054,0.464 -1.445,0.937 H 46.378 V 26.802 H 9.052 V 37.588 H 46.378 V 33.41 c 0.393,0.391 0.668,0.842 0.634,1.377 -0.024,0.373 0.365,0.55 0.615,0.42 1.531,-0.796 1.461,-2.641 0.4,-3.655 v -0.15 c 0.109,-0.019 0.206,-0.031 0.274,-0.031 0.682,0 1.048,0.256 1.335,0.567 0.334,0.363 0.752,0.227 0.839,-0.22 0.05,-0.249 0.07,-0.828 -0.142,-1.34 z"
   id="path12" />
		</g>
		<g
   id="g32">
			<rect
   x="90.725998"
   y="17.921"
   fill="#cdceed"
   width="2.2390001"
   height="10.013"
   id="rect16" />
			<rect
   x="66.003998"
   y="17.921"
   fill="#cdceed"
   width="2.2390001"
   height="10.013"
   id="rect18" />
			<path
   fill="#cdceed"
   d="m 107.56,27.935 c 0,0.779 -0.601,1.029 -1.05,1.029 -0.449,0 -0.787,-0.067 -1.049,-0.16 v 1.599 c 0.366,0.097 1.109,0.18 1.579,0.18 1.579,0 2.759,-0.949 2.759,-3.11 v -9.552 h -2.239 z"
   id="path20" />
			<polygon
   fill="#cdceed"
   points="79.746,17.921 79.746,27.935 81.745,27.935 81.745,21.463 86.853,27.935 88.461,27.935 88.461,17.921 86.462,17.921 86.462,24.351 81.354,17.921 "
   id="polygon22" />
			<polygon
   fill="#cdceed"
   points="72.831,27.935 75.07,27.935 75.07,19.7 78.207,19.7 78.207,17.921 69.693,17.921 69.693,19.7 72.831,19.7 "
   id="polygon24" />
			<polygon
   fill="#cdceed"
   points="95.363,17.921 95.363,27.935 97.362,27.935 97.362,21.463 102.469,27.935 104.077,27.935 104.077,17.921 102.079,17.921 102.079,24.351 96.971,17.921 "
   id="polygon26" />
			<path
   fill="#cdceed"
   d="m 119.82,27.935 h 2.265 l -4.61,-10.013 h -0.053 -1.839 -0.053 l -4.61,10.013 h 2.265 l 0.925,-2.185 h 4.786 z m -4.994,-3.878 1.677,-3.963 1.677,3.963 z"
   id="path28" />
			<path
   fill="#cdceed"
   d="m 62.298,22.738 c 0.893,-0.333 1.579,-1.159 1.579,-2.239 0,-1.599 -1.339,-2.578 -3.209,-2.578 h -4.826 v 10.013 h 4.817 c 2.212,0 3.464,-1.288 3.464,-2.807 0,-1.172 -0.932,-2.216 -1.825,-2.389 z M 57.874,19.54 c 0.693,0 1.679,0 2.478,0 0.799,0 1.386,0.537 1.386,1.244 0,0.707 -0.586,1.221 -1.248,1.221 -0.879,0 -2.616,0 -2.616,0 V 19.54 Z m 2.867,6.732 c -0.928,0 -2.867,0 -2.867,0 v -2.601 c 0.731,0 1.878,0 2.722,0 0.844,0 1.462,0.567 1.462,1.312 0,0.745 -0.619,1.289 -1.317,1.289 z"
   id="path30" />
		</g>
		<g
   id="g62">
			<path
   fill="#cdceed"
   d="m 57.064,42.116 c -0.459,-0.147 -0.857,-0.369 -1.192,-0.664 l 0.372,-0.764 c 0.349,0.282 0.711,0.486 1.086,0.613 0.375,0.128 0.798,0.191 1.267,0.191 0.536,0 0.952,-0.1 1.247,-0.302 0.295,-0.201 0.442,-0.486 0.442,-0.855 0,-0.308 -0.138,-0.541 -0.413,-0.699 -0.275,-0.158 -0.711,-0.303 -1.307,-0.438 -0.57,-0.121 -1.036,-0.26 -1.398,-0.417 -0.362,-0.158 -0.647,-0.369 -0.855,-0.634 -0.208,-0.265 -0.312,-0.605 -0.312,-1.021 0,-0.416 0.111,-0.783 0.332,-1.102 0.221,-0.318 0.535,-0.567 0.94,-0.744 0.406,-0.178 0.873,-0.267 1.403,-0.267 0.503,0 0.974,0.077 1.413,0.231 0.439,0.154 0.806,0.372 1.101,0.654 l -0.372,0.764 c -0.329,-0.275 -0.667,-0.478 -1.016,-0.608 -0.349,-0.131 -0.721,-0.196 -1.116,-0.196 -0.517,0 -0.922,0.109 -1.217,0.327 -0.295,0.218 -0.442,0.515 -0.442,0.89 0,0.322 0.129,0.567 0.387,0.734 0.258,0.168 0.672,0.319 1.242,0.453 0.597,0.134 1.08,0.275 1.449,0.422 0.369,0.148 0.664,0.349 0.885,0.604 0.221,0.255 0.332,0.583 0.332,0.986 0,0.416 -0.111,0.778 -0.332,1.086 -0.221,0.309 -0.538,0.548 -0.951,0.719 -0.412,0.171 -0.897,0.257 -1.454,0.257 -0.557,0 -1.062,-0.072 -1.521,-0.22 z"
   id="path34" />
			<path
   fill="#cdceed"
   d="m 62.722,35.096 h 4.647 v 0.845 h -3.621 v 2.253 h 3.42 v 0.845 h -3.42 v 2.374 h 3.621 v 0.845 h -4.647 z"
   id="path36" />
			<path
   fill="#cdceed"
   d="M 74.521,42.257 H 73.425 L 72.53,39.873 c -0.094,-0.255 -0.232,-0.431 -0.413,-0.528 -0.181,-0.097 -0.429,-0.146 -0.744,-0.146 h -1.569 v 3.058 h -1.026 v -7.162 h 2.947 c 0.784,0 1.386,0.174 1.805,0.523 0.419,0.349 0.629,0.848 0.629,1.499 0,0.47 -0.124,0.869 -0.372,1.197 -0.248,0.329 -0.6,0.56 -1.056,0.694 0.416,0.074 0.717,0.369 0.905,0.885 z m -2.917,-3.892 c 0.523,0 0.912,-0.102 1.167,-0.307 0.255,-0.204 0.382,-0.511 0.382,-0.92 0,-0.409 -0.126,-0.712 -0.377,-0.91 -0.252,-0.198 -0.642,-0.297 -1.172,-0.297 h -1.8 v 2.434 z"
   id="path38" />
			<path
   fill="#cdceed"
   d="m 82.125,35.096 -3.158,7.162 h -0.875 l -3.158,-7.162 h 1.086 l 2.515,5.854 2.525,-5.854 z"
   id="path40" />
			<path
   fill="#cdceed"
   d="m 83.03,35.096 h 4.647 v 0.845 h -3.621 v 2.253 h 3.42 v 0.845 h -3.42 v 2.374 h 3.621 v 0.845 H 83.03 Z"
   id="path42" />
			<path
   fill="#cdceed"
   d="m 94.829,42.257 h -1.096 l -0.895,-2.384 c -0.094,-0.255 -0.231,-0.431 -0.412,-0.528 -0.181,-0.097 -0.429,-0.146 -0.744,-0.146 h -1.569 v 3.058 h -1.026 v -7.162 h 2.947 c 0.785,0 1.386,0.174 1.806,0.523 0.419,0.349 0.629,0.848 0.629,1.499 0,0.47 -0.124,0.869 -0.372,1.197 -0.248,0.329 -0.6,0.56 -1.056,0.694 0.416,0.074 0.717,0.369 0.905,0.885 z m -2.917,-3.892 c 0.523,0 0.912,-0.102 1.167,-0.307 0.255,-0.204 0.382,-0.511 0.382,-0.92 0,-0.409 -0.126,-0.712 -0.377,-0.91 -0.251,-0.198 -0.642,-0.297 -1.172,-0.297 h -1.8 v 2.434 z"
   id="path44" />
			<path
   fill="#cdceed"
   d="m 99.823,42.116 c -0.459,-0.147 -0.857,-0.369 -1.192,-0.664 l 0.372,-0.764 c 0.349,0.282 0.711,0.486 1.086,0.613 0.375,0.128 0.798,0.191 1.267,0.191 0.536,0 0.952,-0.1 1.247,-0.302 0.295,-0.201 0.442,-0.486 0.442,-0.855 0,-0.308 -0.137,-0.541 -0.412,-0.699 -0.275,-0.158 -0.711,-0.303 -1.308,-0.438 -0.57,-0.121 -1.036,-0.26 -1.398,-0.417 -0.362,-0.158 -0.647,-0.369 -0.855,-0.634 -0.208,-0.265 -0.312,-0.605 -0.312,-1.021 0,-0.416 0.111,-0.783 0.332,-1.102 0.221,-0.318 0.535,-0.567 0.941,-0.744 0.406,-0.178 0.873,-0.267 1.403,-0.267 0.503,0 0.974,0.077 1.413,0.231 0.439,0.154 0.806,0.372 1.102,0.654 l -0.372,0.764 c -0.329,-0.275 -0.667,-0.478 -1.016,-0.608 -0.349,-0.131 -0.721,-0.196 -1.117,-0.196 -0.516,0 -0.922,0.109 -1.217,0.327 -0.295,0.218 -0.442,0.515 -0.442,0.89 0,0.322 0.129,0.567 0.387,0.734 0.258,0.168 0.672,0.319 1.242,0.453 0.597,0.134 1.08,0.275 1.449,0.422 0.369,0.148 0.664,0.349 0.885,0.604 0.221,0.255 0.332,0.583 0.332,0.986 0,0.416 -0.111,0.778 -0.332,1.086 -0.221,0.309 -0.538,0.548 -0.95,0.719 -0.412,0.171 -0.897,0.257 -1.454,0.257 -0.556,0.002 -1.064,-0.072 -1.523,-0.22 z"
   id="path46" />
			<path
   fill="#cdceed"
   d="m 105.481,35.096 h 4.647 v 0.845 h -3.621 v 2.253 h 3.42 v 0.845 h -3.42 v 2.374 h 3.621 v 0.845 h -4.647 z"
   id="path48" />
			<path
   fill="#cdceed"
   d="m 112.849,41.89 c -0.513,-0.298 -0.907,-0.722 -1.182,-1.272 -0.275,-0.55 -0.412,-1.2 -0.412,-1.951 0,-0.744 0.137,-1.391 0.412,-1.941 0.275,-0.55 0.669,-0.972 1.182,-1.267 0.513,-0.295 1.115,-0.443 1.805,-0.443 0.489,0 0.944,0.076 1.363,0.226 0.419,0.151 0.773,0.371 1.061,0.659 l -0.362,0.764 c -0.335,-0.275 -0.666,-0.474 -0.991,-0.598 -0.325,-0.124 -0.679,-0.186 -1.061,-0.186 -0.744,0 -1.319,0.241 -1.725,0.724 -0.406,0.483 -0.609,1.17 -0.609,2.062 0,0.899 0.203,1.591 0.609,2.077 0.406,0.486 0.981,0.729 1.725,0.729 0.382,0 0.736,-0.062 1.061,-0.186 0.325,-0.124 0.655,-0.324 0.991,-0.598 l 0.362,0.764 c -0.288,0.288 -0.642,0.508 -1.061,0.659 -0.419,0.151 -0.873,0.226 -1.363,0.226 -0.691,0 -1.292,-0.149 -1.805,-0.448 z"
   id="path50" />
			<path
   fill="#cdceed"
   d="m 119.196,41.593 c -0.493,-0.496 -0.739,-1.224 -0.739,-2.183 v -4.315 h 1.016 v 4.386 c 0,0.664 0.159,1.165 0.478,1.504 0.318,0.339 0.79,0.508 1.413,0.508 0.617,0 1.085,-0.171 1.403,-0.513 0.318,-0.342 0.478,-0.841 0.478,-1.499 v -4.386 h 1.026 v 4.315 c 0,0.959 -0.246,1.687 -0.739,2.183 -0.493,0.496 -1.216,0.744 -2.168,0.744 -0.953,10e-4 -1.676,-0.247 -2.168,-0.744 z"
   id="path52" />
			<path
   fill="#cdceed"
   d="m 131.744,42.257 h -1.096 l -0.895,-2.384 c -0.094,-0.255 -0.231,-0.431 -0.412,-0.528 -0.181,-0.097 -0.429,-0.146 -0.744,-0.146 h -1.569 v 3.058 H 126 v -7.162 h 2.947 c 0.785,0 1.386,0.174 1.806,0.523 0.419,0.349 0.629,0.848 0.629,1.499 0,0.47 -0.124,0.869 -0.372,1.197 -0.248,0.329 -0.6,0.56 -1.056,0.694 0.416,0.074 0.717,0.369 0.905,0.885 z m -2.917,-3.892 c 0.523,0 0.912,-0.102 1.167,-0.307 0.255,-0.204 0.382,-0.511 0.382,-0.92 0,-0.409 -0.126,-0.712 -0.377,-0.91 -0.251,-0.198 -0.642,-0.297 -1.172,-0.297 h -1.8 v 2.434 z"
   id="path54" />
			<path
   fill="#cdceed"
   d="m 133.122,35.096 h 1.036 v 7.162 h -1.036 z"
   id="path56" />
			<path
   fill="#cdceed"
   d="m 137.648,35.961 h -2.424 v -0.865 h 5.894 v 0.865 h -2.424 v 6.297 h -1.046 z"
   id="path58" />
			<path
   fill="#cdceed"
   d="m 145.091,39.381 v 2.877 h -1.046 V 39.36 l -2.847,-4.265 h 1.187 l 2.193,3.38 2.183,-3.38 h 1.187 z"
   id="path60" />
		</g>
	</g>
</g>
</svg>
