<?xml version="1.0" encoding="utf-8"?>
<!-- Generator: Adobe Illustrator 25.4.1, SVG Export Plug-In . SVG Version: 6.00 Build 0)  -->
<svg version="1.1" id="Warstwa_1" xmlns="http://www.w3.org/2000/svg" xmlns:xlink="http://www.w3.org/1999/xlink" x="0px" y="0px"
	 width="60px" height="60px" viewBox="0 0 60 60" style="enable-background:new 0 0 60 60;" xml:space="preserve">
<style type="text/css">
	.st0{clip-path:url(#SVGID_00000052790863094614885630000010985725456244370051_);}
	.st1{fill:#4245B3;}
	.st2{fill:url(#Path_22825_00000115515299021292131250000001467077913027858050_);}
	.st3{fill:#4FD1C5;}
	.st4{fill:url(#Path_22825_00000023265913464959453050000013726468323014727074_);}
</style>
<g id="email-marketing-logo_00000078764161880185139710000010588163475883233438_">
	<g>
		<g>
			<g>
				<defs>
					<rect id="SVGID_1_" x="13190" y="8506" width="60" height="60"/>
				</defs>
				<clipPath id="SVGID_00000093134581284084822460000011645784981193847716_">
					<use xlink:href="#SVGID_1_"  style="overflow:visible;"/>
				</clipPath>
				
					<g id="email-marketing-logo-2_00000078011025206316516330000007586662787605412542_" transform="translate(6595 4253)" style="clip-path:url(#SVGID_00000093134581284084822460000011645784981193847716_);">
					<g id="Group_9908_00000178889229311753121230000005882088843626618262_" transform="translate(-6595 -4253)">
						<g id="Group_9907_00000119801820055758176910000007013744278773077912_" transform="translate(0 19.606)">
							<path id="Path_22824_00000132089187322126361260000013019039802916956319_" class="st1" d="M45.29,17.32
								c0.01-3.01-2.22-5.57-5.2-5.97c-2.8-0.37-5.41-1.66-7.41-3.67c-0.25-0.25-0.49-0.51-0.71-0.77c-1.6-1.88-2.62-4.17-2.95-6.61
								c-0.41-2.98-2.96-5.2-5.97-5.19H10.21C4.58-4.88,0.02-0.32,0,5.31l0,0c0.02,5.63,4.58,10.19,10.21,10.21h8.63
								c3.33,0.01,6.03,2.7,6.03,6.03v8.63c0.02,5.63,4.58,10.19,10.21,10.21l0,0c5.63-0.02,10.19-4.58,10.21-10.21V17.32z"/>
							
								<linearGradient id="Path_22825_00000164476312623312188570000011320662042928037255_" gradientUnits="userSpaceOnUse" x1="-588.0639" y1="497.0295" x2="-588.0639" y2="496.2798" gradientTransform="matrix(42.634 0 0 -30.613 25087.5059 15210.6738)">
								<stop  offset="0" style="stop-color:#4245B3"/>
								<stop  offset="1" style="stop-color:#2D2F7A"/>
							</linearGradient>
							
								<path id="Path_22825_00000093156170560432855160000002415934631237859001_" style="fill:url(#Path_22825_00000164476312623312188570000011320662042928037255_);" d="
								M31.98,6.91c-1.6-1.88-2.62-4.17-2.95-6.61c-0.41-2.98-2.96-5.2-5.97-5.19H10.21C4.58-4.88,0.02-0.32,0,5.31l0,0
								c0.02,5.63,4.58,10.19,10.21,10.21h8.63c1.95,0,3.78,0.95,4.91,2.54C27.64,15.34,30.53,11.42,31.98,6.91z"/>
						</g>
						
							<circle id="Ellipse_1152_00000074415735096657342670000004206899073149175693_" class="st1" cx="47.73" cy="12.27" r="12.27"/>
						<circle id="Ellipse_1153_00000157301003351204995740000003497843652655882678_" class="st3" cx="9.65" cy="50.35" r="8.18"/>
					</g>
				</g>
			</g>
		</g>
	</g>
</g>
<g id="email-marketing-logo_00000062182320085954871350000013350517691587686055_">
	<g>
		<g id="email-marketing-logo-2_00000176757675836723906740000013053648093098969768_" transform="translate(6595 4253)">
			<g id="Group_9908_00000077304842133953526270000007488587300274266813_" transform="translate(-6595 -4253)">
				<g id="Group_9907_00000135657266332090978980000000462637853992978829_" transform="translate(0 19.606)">
					<path id="Path_22824_00000094585174017472807400000012293684327959362697_" class="st1" d="M45.29,17.32
						c0.01-3.01-2.22-5.57-5.2-5.97c-2.8-0.37-5.41-1.66-7.41-3.67c-0.25-0.25-0.49-0.51-0.71-0.77c-1.6-1.88-2.62-4.17-2.95-6.61
						c-0.41-2.98-2.96-5.2-5.97-5.19H10.21C4.58-4.88,0.02-0.32,0,5.31l0,0c0.02,5.63,4.58,10.19,10.21,10.21h8.63
						c3.33,0.01,6.03,2.7,6.03,6.03v8.63c0.02,5.63,4.58,10.19,10.21,10.21l0,0c5.63-0.02,10.19-4.58,10.21-10.21V17.32z"/>
					
						<linearGradient id="Path_22825_00000183242730802659608270000008119504242650074294_" gradientUnits="userSpaceOnUse" x1="-588.0639" y1="511.3245" x2="-588.0639" y2="512.0742" gradientTransform="matrix(42.634 0 0 30.613 25087.5059 -15658.0674)">
						<stop  offset="0" style="stop-color:#4245B3"/>
						<stop  offset="1" style="stop-color:#2D2F7A"/>
					</linearGradient>
					
						<path id="Path_22825_00000103952796041727614110000018223071150756240016_" style="fill:url(#Path_22825_00000183242730802659608270000008119504242650074294_);" d="
						M31.98,6.91c-1.6-1.88-2.62-4.17-2.95-6.61c-0.41-2.98-2.96-5.2-5.97-5.19H10.21C4.58-4.88,0.02-0.32,0,5.31l0,0
						c0.02,5.63,4.58,10.19,10.21,10.21h8.63c1.95,0,3.78,0.95,4.91,2.54C27.64,15.34,30.53,11.42,31.98,6.91z"/>
				</g>
				<circle id="Ellipse_1152_00000104694450320371133080000010010803753821928107_" class="st1" cx="47.73" cy="12.27" r="12.27"/>
				<circle id="Ellipse_1153_00000117638660546091270150000015659646114146986153_" class="st3" cx="9.65" cy="50.35" r="8.18"/>
			</g>
		</g>
	</g>
</g>
</svg>
