<svg xmlns="http://www.w3.org/2000/svg" width="154" height="19.514" viewBox="0 0 154 19.514"><defs><style>.a{fill:#2d2f7a;}.b{fill:#5457ff;}</style></defs><path class="a" d="M-1333.438,341.289a1.056,1.056,0,0,1,1.055-1.057h8.489a.836.836,0,0,1,.835.837v.507a.836.836,0,0,1-.835.837h-7.063v5.6h5.6a.836.836,0,0,1,.835.837v.507a.836.836,0,0,1-.835.837h-5.6v5.757h7.494a.836.836,0,0,1,.835.837v.507a.836.836,0,0,1-.835.837h-8.92a1.056,1.056,0,0,1-1.055-1.057Z" transform="translate(1333.438 -338.999)"/><path class="a" d="M-1261.837,352.273a.739.739,0,0,1-.836.837h-.785a.739.739,0,0,1-.836-.837V334.739a.739.739,0,0,1,.836-.837h.785a.739.739,0,0,1,.836.837Z" transform="translate(1277.736 -333.902)"/><path class="a" d="M-1226.083,365.017h-.608q-.835,0-.835.71v.638a2.876,2.876,0,0,0,.051.5h-.051a3.092,3.092,0,0,0-.81-1.065,4.747,4.747,0,0,0-1.228-.748,4.866,4.866,0,0,0-1.962-.342c-3.416,0-5.722,2.436-5.722,6.831,0,4.042,2.273,6.682,5.508,6.682,1.733,0,3.62-.722,4.213-2.181h.051a4.727,4.727,0,0,0-.051.52v.645q0,.71.835.71h.608a.739.739,0,0,0,.835-.837V365.854A.739.739,0,0,0-1226.083,365.017Zm-5.138,11.078c-2.156,0-3.52-2.028-3.52-4.653,0-2.461.986-4.6,3.632-4.6,2.029,0,3.456,1.8,3.456,4.6C-1227.653,374.221-1229.1,376.1-1231.221,376.1Z" transform="translate(1255.949 -358.712)"/><path class="a" d="M-1161.249,376.759a.657.657,0,0,1-.354-.507,1.036,1.036,0,0,1,.177-.634l.253-.355a.786.786,0,0,1,.519-.355,1.187,1.187,0,0,1,.646.177,11.823,11.823,0,0,0,1.215.659,4.391,4.391,0,0,0,1.924.38,2.594,2.594,0,0,0,1.57-.444,1.462,1.462,0,0,0,.608-1.255,1.217,1.217,0,0,0-.493-1.014,5.733,5.733,0,0,0-1.228-.7q-.734-.317-1.582-.609a7.35,7.35,0,0,1-1.582-.761,4.439,4.439,0,0,1-1.228-1.154,2.966,2.966,0,0,1-.494-1.775,3.409,3.409,0,0,1,.367-1.61,3.291,3.291,0,0,1,1-1.154,4.7,4.7,0,0,1,1.481-.7,6.509,6.509,0,0,1,1.785-.241,5.934,5.934,0,0,1,2.215.355,9.619,9.619,0,0,1,1.329.634.708.708,0,0,1,.418.469.912.912,0,0,1-.14.647l-.228.381q-.355.634-1.114.279a8.645,8.645,0,0,0-1.051-.482,4.269,4.269,0,0,0-1.557-.254,2.741,2.741,0,0,0-1.532.406,1.358,1.358,0,0,0-.62,1.217,1.251,1.251,0,0,0,.494,1.027,5.088,5.088,0,0,0,1.228.7q.734.3,1.582.609a8.83,8.83,0,0,1,1.582.748,4.067,4.067,0,0,1,1.228,1.141,3.024,3.024,0,0,1,.493,1.788,3.5,3.5,0,0,1-.329,1.509,3.5,3.5,0,0,1-.937,1.2,4.38,4.38,0,0,1-1.456.786,6.021,6.021,0,0,1-1.886.279,7.3,7.3,0,0,1-1.481-.14,6.979,6.979,0,0,1-1.2-.355,7.592,7.592,0,0,1-.949-.456A5.4,5.4,0,0,1-1161.249,376.759Z" transform="translate(1195.012 -358.712)"/><path class="a" d="M-1054.308,342.743a.739.739,0,0,1-.835-.837v-.837a.739.739,0,0,1,.835-.837h.861a.739.739,0,0,1,.835.837v.837a.739.739,0,0,1-.835.837Zm-.81,3.4a.739.739,0,0,1,.836-.837h.785a.739.739,0,0,1,.835.837V357.37a.739.739,0,0,1-.835.837h-.785a.739.739,0,0,1-.836-.837Z" transform="translate(1109.247 -338.999)"/><path class="a" d="M-1018.573,376.52a.683.683,0,0,1-.29.9,6.531,6.531,0,0,1-3.1.734c-4.559,0-6.484-3.432-6.484-6.721,0-3.225,2.042-6.721,6.378-6.721a6.3,6.3,0,0,1,2.952.681.682.682,0,0,1,.3.912l-.312.625a.676.676,0,0,1-.871.324,4.675,4.675,0,0,0-1.832-.412c-2.658,0-4.1,1.44-4.1,4.565,0,2.67,1.4,4.616,4.155,4.616a5.062,5.062,0,0,0,2.042-.447.673.673,0,0,1,.875.33Z" transform="translate(1087.742 -358.712)"/><path class="a" d="M-1101.007,363.766a.836.836,0,0,1-.836.837h-.785a.836.836,0,0,1-.836-.837V353.83h-1.325a.728.728,0,0,1-.81-.837v-.462a.7.7,0,0,1,.7-.7h1.483v-2.815a.836.836,0,0,1,.836-.837h.734a.836.836,0,0,1,.836.837v2.815h2.36a.7.7,0,0,1,.7.7v.462a.728.728,0,0,1-.81.837h-2.253Z" transform="translate(1149.893 -345.394)"/><path class="a" d="M-847.324,341.289a1.056,1.056,0,0,1,1.055-1.057h8.49a.836.836,0,0,1,.835.837v.507a.836.836,0,0,1-.835.837h-7.064v5.6h5.6a.836.836,0,0,1,.835.837v.507a.836.836,0,0,1-.835.837h-5.6v5.757h7.494a.836.836,0,0,1,.835.837v.507a.836.836,0,0,1-.835.837h-8.92a1.056,1.056,0,0,1-1.055-1.057Z" transform="translate(941.831 -338.999)"/><path class="a" d="M-778.438,365.854a.739.739,0,0,1,.835-.837h.709a.739.739,0,0,1,.836.837V367a2.6,2.6,0,0,1-.051.507.938.938,0,0,0-.025.228h.051a4.379,4.379,0,0,1,.671-1.1,5.119,5.119,0,0,1,1.038-.963,5.869,5.869,0,0,1,1.291-.685,4.04,4.04,0,0,1,1.455-.266,3.527,3.527,0,0,1,3.848,2.917h.05a4.627,4.627,0,0,1,.709-1.091,5.482,5.482,0,0,1,1.038-.938,5.158,5.158,0,0,1,1.291-.647,4.613,4.613,0,0,1,1.494-.241,3.929,3.929,0,0,1,3.215,1.23,5.712,5.712,0,0,1,1.013,3.69v7.451a.739.739,0,0,1-.835.837h-.785a.739.739,0,0,1-.835-.837v-6.918a8.475,8.475,0,0,0-.089-1.268,3,3,0,0,0-.329-1.014,1.782,1.782,0,0,0-.684-.685,2.306,2.306,0,0,0-1.152-.254,3.077,3.077,0,0,0-1.595.418,3.87,3.87,0,0,0-1.2,1.116,5.169,5.169,0,0,0-.747,1.585,6.524,6.524,0,0,0-.253,1.8v5.219a.728.728,0,0,1-.81.837h-.81a.728.728,0,0,1-.81-.837v-6.918a9.372,9.372,0,0,0-.076-1.217,3.113,3.113,0,0,0-.3-1.027,1.757,1.757,0,0,0-.671-.71,2.273,2.273,0,0,0-1.177-.266,3.123,3.123,0,0,0-1.633.431,3.982,3.982,0,0,0-1.215,1.129,5.183,5.183,0,0,0-.747,1.585,6.444,6.444,0,0,0-.253,1.775v5.219a.739.739,0,0,1-.835.837h-.785a.739.739,0,0,1-.835-.837Z" transform="translate(886.338 -358.712)"/><path class="a" d="M-584.1,342.743a.739.739,0,0,1-.835-.837v-.837a.739.739,0,0,1,.835-.837h.861a.739.739,0,0,1,.835.837v.837a.739.739,0,0,1-.835.837Zm-.81,3.4a.739.739,0,0,1,.835-.837h.785a.739.739,0,0,1,.835.837V357.37a.739.739,0,0,1-.835.837h-.785a.739.739,0,0,1-.835-.837Z" transform="translate(730.454 -338.999)"/><path class="a" d="M-551.488,352.273a.739.739,0,0,1-.835.837h-.785a.739.739,0,0,1-.835-.837V334.739a.739.739,0,0,1,.835-.837h.785a.739.739,0,0,1,.835.837Z" transform="translate(705.488 -333.902)"/><path class="a" d="M-653.724,365.014h-.607q-.836,0-.835.71v.638a2.869,2.869,0,0,0,.05.5h-.05a3.09,3.09,0,0,0-.81-1.065,4.744,4.744,0,0,0-1.228-.748,4.865,4.865,0,0,0-1.962-.342c-3.416,0-5.722,2.436-5.722,6.831,0,4.042,2.273,6.682,5.508,6.682,1.733,0,3.62-.722,4.213-2.181h.05a4.724,4.724,0,0,0-.05.52v.646q0,.709.835.71h.607a.739.739,0,0,0,.836-.837V365.85A.739.739,0,0,0-653.724,365.014Zm-5.138,11.078c-2.155,0-3.521-2.029-3.521-4.653,0-2.461.986-4.6,3.632-4.6,2.029,0,3.456,1.8,3.456,4.6C-655.294,374.217-656.738,376.092-658.862,376.092Z" transform="translate(794.864 -358.709)"/><path class="b" d="M-942.209,371.017a3.464,3.464,0,0,0-2.274-1.321,2.3,2.3,0,0,0-.332-.029c-.112,0-.227-.01-.307-.007h-1.028a.389.389,0,0,0-.389.389v.63a.389.389,0,0,0,.389.389h1.028a2.107,2.107,0,0,1,.223.009,1.124,1.124,0,0,1,.195.028,2,2,0,0,1,1.263.828,2.084,2.084,0,0,1,.346,1.442,2.054,2.054,0,0,1-.714,1.31,1.856,1.856,0,0,1-.681.366,2.687,2.687,0,0,1-.865.086l-2.123.008c-1.415.006-2.831.012-4.246,0l-2.123-.008-.53,0h-.4l-.1-.006a1.991,1.991,0,0,1-.752-.2,2.014,2.014,0,0,1-.976-1.143,2.1,2.1,0,0,1,.045-1.48,1.982,1.982,0,0,1,1.05-1.079,1.964,1.964,0,0,1,.776-.156l1.061,0c1.135,0,2.158-.01,3.247,0l-1.271,1.406a.315.315,0,0,0,.032.454l.414.345a.329.329,0,0,0,.463-.043l2.031-2.449a.641.641,0,0,0,0-.817l-2.031-2.449a.329.329,0,0,0-.463-.043l-.414.345a.315.315,0,0,0-.032.453l1.271,1.406c-1.09.007-2.113,0-3.247,0l-1.061,0a3.66,3.66,0,0,0-1.3.224,3.505,3.505,0,0,0-1.946,1.781,3.419,3.419,0,0,0-.088,2.663,3.474,3.474,0,0,0,1.827,1.9,3.431,3.431,0,0,0,1.294.3l.166.007h.4l.53,0,2.123-.008c1.415-.01,2.831,0,4.246,0l2.123.008a4.485,4.485,0,0,0,1.24-.111,3.6,3.6,0,0,0,1.208-.572,3.417,3.417,0,0,0,1.371-2.269A3.41,3.41,0,0,0-942.209,371.017Z" transform="translate(1030.985 -360.865)"/></svg>